<svg width="115" height="136" viewBox="0 0 115 136" fill="none" xmlns="http://www.w3.org/2000/svg">
<path d="M3.75977 123.092C3.1901 123.092 2.90527 122.778 2.90527 122.152V99.5249C2.90527 98.8983 3.1901 98.585 3.75977 98.585H10.4248C14.2985 98.585 16.9076 99.2116 18.252 100.465C19.5964 101.718 20.2686 103.228 20.2686 104.994C20.2686 106.395 19.7103 107.586 18.5938 108.565C17.4772 109.534 16.3949 110.104 15.3467 110.274V110.326C16.4974 110.428 17.7791 111.004 19.1919 112.052C20.616 113.089 21.3281 114.501 21.3281 116.29C21.3281 118.227 20.6104 119.845 19.1748 121.144C17.7507 122.442 15.1188 123.092 11.2793 123.092H3.75977ZM6.18652 120.289H10.7324C13.182 120.289 14.9764 119.987 16.1157 119.383C17.255 118.779 17.8247 117.714 17.8247 116.188C17.8247 114.775 17.2437 113.681 16.0815 112.906C14.9308 112.132 13.1478 111.744 10.7324 111.744H6.18652V120.289ZM6.18652 109.283H10.4761C12.3787 109.283 13.9282 108.879 15.1245 108.07C16.3322 107.25 16.936 106.224 16.936 104.994C16.936 103.82 16.486 102.926 15.5859 102.311C14.6859 101.695 12.9826 101.388 10.4761 101.388H6.18652V109.283ZM25.6006 116.837V105.917C25.6006 105.404 25.8569 105.147 26.3696 105.147H27.8394C28.3521 105.147 28.6084 105.404 28.6084 105.917V116.017C28.6084 118.25 28.9787 119.668 29.7192 120.272C30.4598 120.864 31.377 121.161 32.4707 121.161C33.9062 121.161 35.0057 120.722 35.769 119.845C36.5324 118.956 36.9141 117.441 36.9141 115.299V105.917C36.9141 105.404 37.1704 105.147 37.6831 105.147H39.1528C39.6655 105.147 39.9219 105.404 39.9219 105.917V122.323C39.9219 122.835 39.6655 123.092 39.1528 123.092H37.7173C37.2046 123.092 36.9482 122.835 36.9482 122.323V120.956H36.8799C36.1393 121.776 35.3418 122.385 34.4873 122.784C33.6328 123.183 32.5903 123.382 31.3599 123.382C29.366 123.382 27.9077 122.801 26.9849 121.639C26.062 120.466 25.6006 118.865 25.6006 116.837ZM45.5444 123.092C45.0317 123.092 44.7754 122.835 44.7754 122.323V100.995C44.7754 100.767 44.8324 100.55 44.9463 100.345L46.1426 98.1748C46.359 97.776 46.5356 97.5767 46.6724 97.5767H47.2705C47.6123 97.5767 47.7832 97.776 47.7832 98.1748V122.323C47.7832 122.835 47.5269 123.092 47.0142 123.092H45.5444ZM53.4058 123.092C52.8931 123.092 52.6367 122.835 52.6367 122.323V98.6362C52.6367 98.1235 52.8931 97.8672 53.4058 97.8672H54.8755C55.3882 97.8672 55.6445 98.1235 55.6445 98.6362V106.241C55.6445 106.594 55.6331 106.942 55.6104 107.284H55.6445C56.2712 106.532 56.9775 105.939 57.7637 105.506C58.5498 105.073 59.598 104.857 60.9082 104.857C63.1868 104.857 64.9186 105.791 66.1035 107.66C67.2884 109.517 67.8809 111.67 67.8809 114.12C67.8809 116.569 67.2884 118.728 66.1035 120.597C64.9186 122.454 63.1868 123.382 60.9082 123.382C59.598 123.382 58.5498 123.166 57.7637 122.733C56.9775 122.3 56.2712 121.708 55.6445 120.956H55.6104L55.5078 122.323C55.4736 122.835 55.2515 123.092 54.8413 123.092H53.4058ZM55.6445 116.085C55.6445 117.794 56.049 119.07 56.8579 119.913C57.6782 120.745 58.7036 121.161 59.9341 121.161C61.6659 121.161 62.8906 120.511 63.6084 119.212C64.3376 117.914 64.7021 116.216 64.7021 114.12C64.7021 112.023 64.3376 110.326 63.6084 109.027C62.8906 107.728 61.6659 107.079 59.9341 107.079C58.7036 107.079 57.6782 107.5 56.8579 108.343C56.049 109.175 55.6445 110.445 55.6445 112.154V116.085ZM70.8032 114.12C70.8032 111.294 71.5096 109.044 72.9224 107.369C74.3351 105.694 76.3574 104.857 78.9893 104.857C81.1768 104.857 82.9883 105.626 84.4238 107.164C85.8708 108.691 86.5942 111.135 86.5942 114.496C86.5942 115.008 86.3607 115.265 85.8936 115.265H73.9819C74.1756 117.464 74.7681 118.996 75.7593 119.862C76.7505 120.716 77.8727 121.144 79.126 121.144C80.4476 121.144 81.4616 120.921 82.168 120.477C82.8743 120.033 83.3927 119.594 83.7231 119.161C84.0877 118.683 84.4409 118.591 84.7827 118.888L85.791 119.759C86.0531 119.987 86.0531 120.3 85.791 120.699C85.5745 121.03 84.9536 121.559 83.9282 122.289C82.9142 123.018 81.3135 123.382 79.126 123.382C76.2777 123.382 74.1756 122.545 72.8198 120.87C71.4754 119.195 70.8032 116.945 70.8032 114.12ZM73.9136 113.043H83.5693C83.5238 111.448 83.1136 110.052 82.3389 108.856C81.5641 107.648 80.4248 107.044 78.9209 107.044C77.5993 107.044 76.4771 107.489 75.5542 108.377C74.6313 109.255 74.0845 110.81 73.9136 113.043ZM89.5679 114.12C89.5679 111.67 90.1603 109.517 91.3452 107.66C92.5301 105.791 94.2619 104.857 96.5405 104.857C97.8507 104.857 98.8989 105.073 99.6851 105.506C100.471 105.939 101.178 106.532 101.804 107.284H101.838C101.816 106.942 101.804 106.594 101.804 106.241V98.6362C101.804 98.1235 102.061 97.8672 102.573 97.8672H104.043C104.556 97.8672 104.812 98.1235 104.812 98.6362V122.323C104.812 122.835 104.556 123.092 104.043 123.092H102.607C102.197 123.092 101.975 122.835 101.941 122.323L101.838 120.956H101.804C101.178 121.708 100.471 122.3 99.6851 122.733C98.8989 123.166 97.8507 123.382 96.5405 123.382C94.2619 123.382 92.5301 122.454 91.3452 120.597C90.1603 118.728 89.5679 116.569 89.5679 114.12ZM92.7466 114.12C92.7466 116.216 93.1055 117.914 93.8232 119.212C94.5524 120.511 95.7829 121.161 97.5146 121.161C98.7451 121.161 99.7648 120.745 100.574 119.913C101.394 119.07 101.804 117.794 101.804 116.085V112.154C101.804 110.445 101.394 109.175 100.574 108.343C99.7648 107.5 98.7451 107.079 97.5146 107.079C95.7829 107.079 94.5524 107.728 93.8232 109.027C93.1055 110.326 92.7466 112.023 92.7466 114.12Z" fill="#1A3C61"/>
<path fill-rule="evenodd" clip-rule="evenodd" d="M54.9817 0.0204372C58.7777 0.123964 60.5722 0.331017 62.4011 0.883158C63.747 1.26275 66.0591 2.19449 67.5775 2.91918C69.0958 3.67837 71.5115 5.19676 72.9263 6.30104C74.3412 7.43984 76.4462 9.54487 77.585 10.9597C78.7238 12.3401 80.3112 14.8247 81.1049 16.4466C81.8986 18.0686 82.8649 20.5532 83.279 21.9681C83.6586 23.3829 84.0727 26.1091 84.2107 28.0071C84.3142 30.0086 84.2452 32.5278 84.0037 34.0461C83.7621 35.461 83.3135 37.566 82.9339 38.7048C82.5888 39.8436 81.9676 41.5691 81.5535 42.5008C81.1394 43.4671 80.1042 45.3305 79.2414 46.6419C78.3787 47.9877 76.6188 50.0927 75.3764 51.3351C74.1341 52.5774 72.4087 54.0613 71.546 54.6479C70.6832 55.2346 66.0246 57.9953 61.1933 60.7905C59.5547 61.7385 57.789 62.762 56.0768 63.7546L56.07 63.7585L56.0624 63.7629L56.0612 63.7636L56.0545 63.7675C52.7268 65.6965 49.6037 67.5068 48.011 68.4169C45.1467 70.0733 43.3523 70.9016 42.9036 70.798C42.248 70.6255 42.2135 70.3149 42.179 65.3801C42.179 62.2398 42.0064 59.6172 41.7648 58.8925C41.4543 57.9608 40.7296 57.2706 38.4175 55.7177C36.7956 54.6479 34.7251 53.0605 33.7588 52.2323C32.8271 51.4041 31.2397 49.6441 30.2389 48.3328C29.2381 47.0215 27.8233 44.7094 27.0641 43.191C26.3394 41.6726 25.4767 39.5676 25.2006 38.5323C24.89 37.497 24.4759 35.392 24.2689 33.8736C24.0273 32.2862 23.9238 29.8706 24.0618 28.1796C24.1654 26.5577 24.5795 24.0041 24.9591 22.4857C25.3387 20.9673 26.2014 18.5517 26.8916 17.1368C27.5817 15.722 28.7895 13.6169 29.6177 12.4781C30.4115 11.3393 31.4467 10.0625 31.8953 9.6484C32.3439 9.23429 33.2757 8.33706 33.9314 7.64689C34.587 6.95671 36.3125 5.64538 37.7273 4.67913C39.1422 3.74739 41.5578 2.50507 43.0762 1.91842C44.5946 1.33177 46.7686 0.641596 47.9074 0.365525C49.3223 0.054946 51.5654 -0.0485805 54.9817 0.0204372ZM65.0928 61.6532C65.2309 61.6532 65.576 61.9293 65.8865 62.2744C66.3351 62.7575 66.4387 63.4477 66.3351 66.0013C66.2316 68.5895 66.0591 69.3142 65.5069 69.9008C64.8513 70.6255 64.5407 70.66 57.6734 70.6255C53.3253 70.6255 50.4956 70.4875 50.4956 70.2804C50.4956 70.1079 51.1513 69.5902 51.945 69.1071C52.7732 68.6585 55.9825 66.795 59.1228 64.966C62.2631 63.1716 64.9203 61.6532 65.0928 61.6532ZM65.4724 73.4552C64.9893 73.1446 62.1941 73.0411 54.0845 73.0411C44.146 73.0411 43.3178 73.0756 42.7311 73.6623C42.386 74.0074 42.1099 74.732 42.1444 75.2152C42.179 75.7328 42.524 76.4575 42.9036 76.8371C43.5593 77.4928 44.0769 77.5273 54.0155 77.5273C63.5399 77.5618 64.5407 77.4928 65.2999 76.9406C65.8865 76.492 66.1281 75.9744 66.1281 75.1116C66.1281 74.3179 65.8865 73.7658 65.4724 73.4552ZM54.0155 79.5978C58.7777 79.5978 60.1581 79.7013 60.7447 80.1154C61.2968 80.4605 61.5384 80.9781 61.5384 81.7718C61.5384 82.3585 61.2623 83.1522 60.9172 83.4973C60.3996 84.0494 59.6404 84.1184 54.2916 84.0839C49.4948 84.0839 48.08 83.9804 47.4588 83.5663C46.9527 83.2212 46.6996 82.7036 46.6996 82.0134C46.6996 81.4268 47.0102 80.6676 47.3898 80.288C48.011 79.6668 48.5286 79.5978 54.0155 79.5978ZM49.7437 4.63664C49.3296 4.74017 47.9147 5.11976 46.6379 5.49936C45.361 5.84445 43.2905 6.67266 42.0482 7.32833C40.8059 7.94949 38.8734 9.22631 37.7346 10.1581C36.5958 11.0553 34.9049 12.7462 34.0076 13.8505C33.0759 14.9893 31.7301 17.1633 31.0399 18.6817C30.3152 20.2001 29.418 22.5467 29.1074 23.8581C28.6933 25.4455 28.4862 27.5505 28.4862 29.8971C28.4862 32.0712 28.7278 34.4868 29.0729 35.9361C29.3835 37.2475 30.3152 39.7666 31.1779 41.4576C32.2132 43.5971 33.421 45.3571 35.0429 47.117C36.3197 48.5319 38.7008 50.5679 40.3228 51.6377C41.9447 52.7074 43.7736 54.1568 44.3603 54.847C44.9814 55.5717 45.7406 56.952 46.0167 57.9528C46.2928 58.919 46.5343 60.6445 46.5343 61.7487C46.5343 63.0946 46.6724 63.7157 46.9484 63.7157C47.19 63.7157 47.6386 63.5087 47.9147 63.2326C48.1908 62.9911 53.022 60.1613 58.6124 56.952C68.2749 51.4306 68.9651 50.9475 71.9328 48.0142C74.3139 45.6331 75.3837 44.2528 76.4535 42.1477C77.2472 40.6293 78.2134 38.2137 78.593 36.7989C79.0071 35.384 79.4212 32.7958 79.5593 31.1049C79.6973 28.8273 79.5938 27.2054 79.1797 25.0659C78.8346 23.4439 78.1789 21.2009 77.7303 20.0621C77.2472 18.9233 76.1774 16.9908 75.3837 15.7485C74.5555 14.5062 72.7956 12.5047 71.4842 11.2623C70.1729 10.02 68.2404 8.50163 67.2051 7.88047C66.1699 7.29382 63.9268 6.29306 62.2359 5.6719C59.4752 4.74017 58.6124 4.60213 54.8165 4.4986C52.4354 4.4641 50.1578 4.4986 49.7437 4.63664Z" fill="#1A3C61"/>
<path fill-rule="evenodd" clip-rule="evenodd" d="M52.685 7.86236C51.8874 7.80629 50.741 7.80371 50.1395 7.84702L50.127 7.84792C49.5265 7.90535 48.8654 7.99551 48.667 8.03817C48.6285 8.04643 48.5743 8.05797 48.5078 8.0721C48.231 8.13091 47.7425 8.23472 47.3028 8.33502C46.7575 8.4594 45.8716 8.75018 45.3345 8.98748C44.7973 9.22477 44.0814 9.60263 43.7573 9.82458C43.4196 10.0333 42.9909 10.3763 42.8036 10.5742C42.6163 10.7722 41.9495 11.1323 41.3497 11.3741C40.7499 11.6159 39.7894 12.0965 39.2218 12.4353C38.6532 12.76 37.708 13.4523 37.1265 13.9481C36.546 14.4581 35.6452 15.4167 35.1396 16.0916C34.6339 16.7664 34.0253 17.7607 33.7883 18.3169C33.5502 18.859 33.0558 19.6891 32.6738 20.1564C32.3033 20.6087 31.7797 21.3841 31.525 21.8706C31.2578 22.358 30.9012 23.1782 30.7373 23.7007C30.5734 24.2232 30.3902 25.0025 30.3204 25.4332C30.2632 25.8629 30.2591 26.8563 30.315 27.6326C30.3885 28.4785 30.5454 29.4319 30.7133 30.0157C30.8658 30.558 31.2315 31.4396 31.5103 31.9871C31.8327 32.6165 32.2669 33.2236 32.7275 33.6728C33.4184 34.3466 33.4465 34.3871 33.5908 35.3415C33.7053 36.0568 33.8817 36.5832 34.2468 37.2804C34.5953 37.9221 35.0129 38.4737 35.5518 38.9599C35.9832 39.3544 36.7517 39.8807 37.2492 40.1428C37.7582 40.3899 38.6513 40.7229 39.2545 40.8781C39.7629 41.0089 40.3707 41.1527 40.741 41.2403C40.81 41.2566 40.8708 41.271 40.9211 41.283L41.4962 41.3976C41.4315 42.4238 41.1863 43.9169 40.9015 45.3845C40.4796 47.5713 40.4075 48.144 40.5162 48.6043C40.6063 48.9809 40.8206 49.3343 41.201 49.7183C41.5938 50.1015 41.9088 50.2774 42.2648 50.3227C42.5706 50.3716 42.9695 50.3145 43.2632 50.1941C43.6415 50.025 44.1081 49.509 45.4188 47.7689C46.3379 46.5394 47.2967 45.3354 47.5561 45.0897C47.8145 44.83 48.7848 44.1359 49.712 43.5442C51.2896 42.5368 51.4674 42.3821 52.4346 41.1208L53.4709 39.7693C54.4683 40.1515 55.2279 40.3805 55.7915 40.5102C56.6117 40.7065 57.1421 40.7251 58.4463 40.6453C59.8122 40.547 60.2216 40.4608 60.9908 40.1216C61.4913 39.9012 62.2073 39.5233 62.5679 39.2845C62.9286 39.0458 63.6283 38.4421 64.1085 37.9393C64.5898 37.4507 65.1005 36.8464 65.2471 36.6089L65.5048 36.1647C67.1582 36.3861 68.2159 36.3809 69.0931 36.3178C70.1446 36.2279 70.8643 36.0767 71.5142 35.8313C72.0168 35.6391 72.8059 35.2276 73.2753 34.9242C73.7437 34.6068 74.4214 34.0472 74.7844 33.6664C75.16 33.2847 75.6991 32.5507 75.9778 32.0483C76.2681 31.5308 76.6592 30.6656 76.8452 30.0989C77.0185 29.5332 77.2102 28.6965 77.2519 28.2253C77.2935 27.7542 77.3084 27.0863 77.283 26.7334C77.2576 26.3806 77.1181 25.6671 76.9782 25.1239C76.8383 24.5806 76.484 23.684 76.1917 23.1234C75.8995 22.5627 75.553 21.9493 75.426 21.7598C75.2864 21.5712 75.0524 21.1199 74.8987 20.7337C74.7459 20.3617 74.4319 19.6749 74.1854 19.2245C73.9514 18.7732 73.4267 17.9597 73.0342 17.4063C72.6417 16.8529 71.8749 16.0002 71.3361 15.514C70.8088 15.0129 69.9289 14.3385 69.4012 14.0076C68.8861 13.6759 68.0746 13.2519 67.6073 13.0586C67.1389 12.8511 66.299 12.5569 65.7209 12.3999C64.7953 12.1403 64.6107 12.0259 63.9293 11.3089C63.5198 10.8702 62.8391 10.3375 62.4073 10.1132C61.989 9.90217 61.2398 9.644 60.742 9.55216C60.1669 9.43751 59.5363 9.42617 58.9755 9.50911C58.1275 9.62692 58.0763 9.61641 57.3109 9.13242C56.876 8.8658 55.9799 8.49052 55.3246 8.31072C54.6808 8.11589 53.4825 7.91843 52.685 7.86236ZM47.6431 10.4389C48.0881 10.3218 48.6459 10.1965 48.882 10.1511C49.118 10.1058 49.7049 10.0351 50.1926 9.98582C50.6803 9.93652 51.5866 9.92801 52.2057 9.95437C52.8258 9.99484 53.7152 10.101 54.1754 10.1956C54.6347 10.276 55.3692 10.5069 56.6305 11.0545L56.2376 11.7212C56.0249 12.0912 55.8488 12.4443 55.8549 12.529C55.861 12.6137 55.4394 12.5306 54.9354 12.3541C54.1351 12.0854 53.7301 12.0578 52.2975 12.1042C50.6885 12.1491 50.5893 12.1704 50.3464 12.4717C50.1957 12.6528 50.0918 12.9582 50.106 13.1558C50.1202 13.3534 50.2669 13.6407 50.4409 13.7843C50.6983 14.0353 50.8257 14.0545 51.3584 13.931C51.7052 13.8493 52.4591 13.8234 53.0541 13.8657C53.6492 13.9079 54.4539 14.0628 55.5535 14.466L55.7178 15.3479C55.8025 15.8242 55.9725 16.4362 56.0921 16.6971C56.2116 16.9581 56.4575 17.2241 56.639 17.2962C56.8547 17.3752 57.0635 17.3602 57.2656 17.2511C57.4474 17.1529 57.5826 16.9303 57.6164 16.7009C57.6503 16.4715 57.5812 16.0366 57.4826 15.7174C57.3831 15.3841 57.2808 14.8382 57.2554 14.4853C57.23 14.1325 57.2601 13.6763 57.32 13.4592C57.3664 13.2289 57.554 12.8607 57.7257 12.6213C57.8975 12.382 58.252 12.0585 58.5176 11.8975C58.7831 11.7365 59.225 11.577 59.5007 11.5572C59.7764 11.5373 60.3735 11.6078 60.8358 11.7306C61.3753 11.8762 61.8853 12.1374 62.2606 12.4509C62.7035 12.8304 63.0565 13.3583 63.7721 14.7254C64.2838 15.7101 65.0113 16.892 65.3862 17.3757C65.7612 17.8594 66.553 18.7104 67.1606 19.2767C68.0652 20.1195 68.3165 20.2859 68.6673 20.2606C68.8804 20.2453 69.1604 20.1116 69.2756 19.9615C69.3918 19.8254 69.4737 19.5641 69.449 19.3957C69.4337 19.184 69.0338 18.702 68.2646 17.9913C67.6289 17.3845 66.7517 16.3978 66.3176 15.7906C65.8698 15.1703 65.542 14.6406 65.5775 14.6096C65.6121 14.5646 66.1025 14.7279 66.6731 14.9564C67.2438 15.1848 68.1064 15.6193 68.608 15.9378C69.097 16.2573 69.7758 16.7617 70.1134 17.0779C70.4626 17.3791 71.0231 17.9913 71.3574 18.4354C71.7042 18.8786 72.1716 19.5969 72.4046 20.0341C72.6647 20.4977 72.8422 21.0382 72.8665 21.377C72.8889 21.6875 72.8547 22.0872 72.7927 22.2761C72.7297 22.4509 72.5391 22.7767 72.3674 23.0161C72.2072 23.2404 71.8015 23.5534 71.4597 23.7056C71.0323 23.8925 70.5843 23.9673 69.9672 23.9692C69.3627 23.9701 68.8377 23.8519 68.3047 23.6207C67.7581 23.3763 67.1992 22.9626 66.4396 22.2086C65.8425 21.6132 64.7936 20.3409 64.0959 19.3981C63.3972 18.4411 62.7287 17.5529 62.6058 17.4199C62.4693 17.2736 62.2105 17.1788 62.0226 17.1923C61.8221 17.2067 61.5796 17.3377 61.4644 17.4878C61.3483 17.6239 61.2673 17.8993 61.2816 18.0969C61.2958 18.2945 61.6849 18.9758 62.1753 19.664C62.6512 20.3249 63.3468 21.2396 64.3686 22.4854L64.0811 22.6905C63.9117 22.7879 63.5169 22.9014 63.1911 22.9249C62.7775 22.9546 62.3674 22.8565 61.8855 22.6358C61.4411 22.4124 60.8803 21.9705 60.4146 21.4507C59.8406 20.8252 59.5737 20.6175 59.3366 20.6487C59.1612 20.6614 58.9312 20.7914 58.8161 20.9416C58.7009 21.0917 58.622 21.3953 58.6539 21.6626C58.6803 22.0296 58.8625 22.286 59.6763 23.0928C60.3422 23.7684 60.901 24.1822 61.4351 24.4275C62.0985 24.7202 62.3658 24.7577 63.293 24.6909C64.1827 24.6269 64.4669 24.5496 65.6105 23.8147L65.9763 24.1714C66.1921 24.3687 66.7092 24.7287 67.1431 24.9812C67.5769 25.2337 68.304 25.536 68.7663 25.6588C69.2286 25.7815 69.9635 25.8421 70.4146 25.8096C70.8657 25.7772 71.5969 25.611 72.0609 25.4074C72.7213 25.1328 73.0068 24.8995 74.2104 23.4225L74.6067 24.2026C74.8262 24.6266 75.0951 25.3875 75.2194 25.8893C75.3975 26.6142 75.425 26.9953 75.3566 27.7947C75.3085 28.3514 75.1398 29.1581 74.9949 29.5941C74.8279 30.0743 74.3795 30.8443 73.8499 31.5351C73.3097 32.2549 72.7458 32.8205 72.3245 33.092C71.9628 33.3166 71.3065 33.6476 70.8645 33.8072C70.3254 34.0162 69.6172 34.1523 68.6899 34.2191C67.8128 34.2823 66.941 34.2457 66.2908 34.1365C65.7293 34.035 65.0583 33.8138 64.8081 33.6616C64.5578 33.5093 64.1825 33.1959 63.9773 32.9695C63.7585 32.7299 63.5462 32.4047 63.4964 32.238C63.4456 32.0572 63.4808 31.6716 63.5607 31.3821C63.6711 30.9911 63.8208 30.7959 64.0538 30.7082C64.2512 30.6514 65.1982 30.6826 66.1762 30.7966C67.4331 30.9331 68.2526 30.945 68.9513 30.8521C69.6364 30.746 70.1536 30.5811 70.6125 30.3069C70.9752 30.0964 71.4971 29.6473 71.7755 29.3152C72.124 28.907 72.2665 28.613 72.2367 28.374C72.2225 28.1764 72.1029 27.9155 71.9675 27.7833C71.8445 27.6503 71.5858 27.5555 71.3988 27.5831C71.1984 27.5975 70.9088 27.7744 70.734 27.9715C70.5468 28.1694 70.2142 28.4487 69.9863 28.607C69.7583 28.7653 69.2046 28.947 68.7566 29.0218C68.2458 29.1012 67.2864 29.0709 66.1694 28.9527C65.1036 28.845 64.1818 28.8121 63.8726 28.8911C63.5749 28.9551 63.1715 29.126 62.9792 29.2534C62.6551 29.4753 62.5538 29.4684 61.9466 29.2568C61.573 29.1418 60.9065 28.8068 60.4716 28.5401C60.0357 28.2594 59.3946 27.7523 59.0539 27.3938C58.7007 27.0361 58.1893 26.4062 57.9207 25.9999C57.6521 25.5936 57.2589 24.8558 57.0344 24.3613C56.8224 23.8658 56.5399 23.0917 56.3936 22.634C56.2598 22.1755 56.0725 21.3236 55.9932 20.7476C55.9015 20.1725 55.744 19.5596 55.644 19.3966C55.5015 19.1657 55.3325 19.0927 55.0067 19.1162C54.6683 19.1405 54.5241 19.236 54.3835 19.5583C54.2304 19.8814 54.2372 20.1505 54.3619 21.0069C54.4537 21.582 54.5871 22.2108 54.7636 22.7372L53.8793 22.7016C53.3865 22.6803 52.7393 22.6134 52.4179 22.523C52.0975 22.4468 51.5655 22.2297 51.2119 22.0424C50.8709 21.8541 50.4008 21.4482 50.1644 21.1389C49.9395 20.8146 49.6347 20.2549 49.506 19.8669C49.3783 19.4931 49.1581 18.3598 49.0223 17.3481C48.8875 16.3505 48.6633 15.1607 48.519 14.7313C48.3862 14.2869 48.141 13.6803 47.9808 13.3797C47.8206 13.0792 47.4301 12.554 47.1165 12.2219C46.7904 11.8907 46.2973 11.5148 45.4919 11.1755L46.1648 10.9001C46.5326 10.7601 47.1971 10.542 47.6431 10.4389ZM42.8149 13.0997L42.815 13.0997L42.815 13.0996L42.8152 13.0996C43.0094 13.0374 43.1614 12.9887 43.2279 12.97C43.3627 12.9178 43.699 12.8652 43.9737 12.8312C44.2483 12.7973 44.7306 12.8477 45.052 12.938C45.3734 13.0284 45.8218 13.3082 46.0531 13.5469C46.2719 13.7865 46.6153 14.3577 46.8118 14.8117C47.0559 15.4041 47.2246 16.1723 47.4058 17.4645C47.5417 18.4762 47.7368 19.6113 47.8394 19.9869C47.943 20.3767 48.2173 21.0379 48.8717 22.2535L48.2495 22.7097C47.9024 22.9617 47.328 23.5563 46.9846 24.035C46.6422 24.5279 46.245 25.3084 46.0906 25.7877C45.9361 26.267 45.776 27.0162 45.7313 27.4451C45.6673 28.1307 45.69 28.2709 45.9128 28.567C46.0659 28.7687 46.3152 28.9069 46.5302 28.9197C46.7703 28.9308 46.9658 28.8458 47.0789 28.6674C47.1689 28.5191 47.3193 27.9833 47.408 27.4662C47.4842 26.95 47.6745 26.2695 47.8026 25.9482C47.9431 25.6259 48.2835 25.1049 48.5629 24.7868C48.8423 24.4688 49.3557 24.0771 50.2911 23.5983L50.9169 23.8938C51.256 24.0538 51.8632 24.2654 52.2723 24.3495C52.6689 24.4344 53.5186 24.5151 55.3227 24.5554L55.5815 25.1752C55.7197 25.52 56.0827 26.189 56.3699 26.679C56.6697 27.1682 57.1736 27.8696 57.5038 28.2573C57.833 28.6308 58.4948 29.25 58.9744 29.6127C59.455 29.9895 60.2851 30.4972 61.8206 31.1811L61.8816 32.028C61.9138 32.6499 62.0184 33.0538 62.2931 33.5447C62.4834 33.9141 62.899 34.4374 63.7944 35.1533L63.1225 35.9677C62.751 36.4059 62.2112 36.9555 61.9132 37.1898C61.6141 37.4099 61.035 37.7638 60.6211 37.9638C60.1958 38.1789 59.4446 38.4174 58.9589 38.4949C58.4493 38.5884 57.6317 38.6047 57.0993 38.5579C56.5784 38.4961 55.7226 38.3307 55.2197 38.1683C54.7052 38.0209 53.612 37.5321 52.811 37.0791C51.9985 36.641 51.2037 36.2726 51.0533 36.2835C50.8904 36.2952 50.6615 36.4394 50.5348 36.6046C50.4081 36.7697 50.3157 37.0601 50.3299 37.2577C50.3441 37.4553 50.4637 37.7163 50.5992 37.8484C50.7462 37.9655 51.0381 38.1715 51.2613 38.2973C51.666 38.4951 51.668 38.5233 51.5326 38.9161C51.4601 39.1342 51.1062 39.642 50.7702 40.0492C50.3516 40.5334 49.6249 41.1106 48.5774 41.7819C47.7232 42.34 46.6944 43.095 46.3063 43.4776C45.9171 43.8462 44.9113 45.0961 44.0613 46.2355C42.8217 47.9137 42.4943 48.2636 42.4404 48.0405C42.4042 47.8871 42.5007 47.1282 42.6598 46.3648C42.818 45.5873 43.0418 44.3227 43.1634 43.5621C43.2839 42.7873 43.3628 41.9588 43.3466 41.7329C43.3171 41.3236 43.3412 41.3077 43.9596 41.1497C44.3179 41.053 44.833 40.8598 45.0985 40.6988C45.365 40.5519 45.7772 40.1534 46.018 39.8239C46.2598 39.5086 46.5094 38.9515 46.5842 38.5915C46.6716 38.2305 46.7153 37.7875 46.7011 37.59C46.6868 37.3924 46.5822 36.9885 46.4846 36.6834C46.36 36.3519 46.0227 35.8654 45.6027 35.4558C45.2098 35.0727 44.5738 34.6361 44.0793 34.4164C43.611 34.2089 42.8002 33.9694 42.2763 33.8652C41.7533 33.7752 40.866 33.6972 40.3116 33.6946C39.3156 33.6812 39.303 33.6821 39.0443 34.1121C38.9102 34.3488 38.7896 34.5986 38.7957 34.6833C38.8018 34.768 38.9299 34.9716 39.0694 35.1602C39.3048 35.4553 39.4717 35.5001 40.4552 35.5144C41.0733 35.5266 41.9501 35.6337 42.4114 35.7424C42.8727 35.851 43.5196 36.0882 43.8731 36.2756C44.2142 36.4638 44.6301 36.8169 44.7862 37.061C45.0111 37.3853 45.0775 37.6075 45.0402 37.9649C45.0209 38.2217 44.8458 38.5889 44.647 38.8019C44.4367 39.0298 44.0615 39.2413 43.7137 39.3089C43.3178 39.4083 42.6611 39.3847 41.7185 39.2397C40.942 39.1254 39.8535 38.8775 39.2869 38.7055C38.7203 38.5335 37.9003 38.1669 37.4655 37.9003C37.0421 37.6186 36.4908 37.1334 36.2534 36.81C36.0285 36.4857 35.7558 36.023 35.6508 35.7894C35.5574 35.5407 35.4517 35.1227 35.4324 34.8546C35.4006 34.5873 35.4392 34.0738 35.514 33.7137C35.6014 33.3527 35.9075 32.7065 36.2028 32.2596C36.4992 31.8268 36.9543 31.3259 37.2073 31.1658C37.4467 30.9925 37.8867 30.8048 38.1844 30.7408C38.4685 30.6636 39.0229 30.6662 39.406 30.7379C39.789 30.8097 40.4599 31.0309 40.8907 31.2411C41.3205 31.4371 42.1225 31.9043 42.6657 32.2766C43.2089 32.6489 44.0109 33.1161 44.4417 33.3263C44.8715 33.5223 45.6863 33.8183 46.2519 33.9762C46.8175 34.1341 47.6252 34.3313 48.0449 34.3862C48.4655 34.4552 49.4866 34.4668 50.3136 34.4073C51.3672 34.3456 52.0879 34.2086 53.6604 33.6556L54.6076 34.5663C55.1756 35.1071 55.8929 35.6229 56.4019 35.87C56.8713 36.0916 57.5693 36.3392 57.9534 36.4251C58.3375 36.5109 58.8458 36.5736 59.0714 36.5574C59.3596 36.5366 59.5279 36.4252 59.6955 36.1294C59.8296 35.8927 59.9261 35.6588 59.9201 35.5741C59.914 35.4894 59.7995 35.299 59.661 35.1246C59.4818 34.9105 59.1573 34.7778 58.5843 34.6914C58.1251 34.6109 57.5209 34.4416 57.234 34.3062C56.9472 34.1708 56.3934 33.8276 56.0192 33.5283C55.6334 33.244 55.3093 32.941 55.3032 32.8563C55.2971 32.7716 55.6026 32.4659 55.9833 32.1547C56.3514 31.8445 56.7761 31.445 56.9268 31.2639C57.1005 31.0528 57.17 30.7924 57.1486 30.4961C57.1252 30.1714 57.0223 29.966 56.8242 29.8384C56.6531 29.7373 56.433 29.6538 56.3327 29.661C56.2325 29.6682 55.7777 29.9989 55.3154 30.4011C54.8531 30.8032 54.1358 31.3372 53.6999 31.5814C53.2641 31.8256 52.3812 32.1587 51.7397 32.3468C50.9113 32.5625 50.2503 32.6527 49.4943 32.6503C48.9013 32.6363 47.9618 32.5337 47.3993 32.4181C46.8368 32.3026 45.8424 31.9627 45.205 31.6823C44.5406 31.3755 43.723 30.8669 43.3071 30.5138C42.8621 30.106 42.433 29.5694 42.1688 29.0494C41.9473 28.5971 41.6503 27.7957 41.5355 27.2506C41.4051 26.6642 41.315 25.7627 41.3102 24.9969C41.298 24.3026 41.3562 23.3621 41.426 22.9314C41.4958 22.5008 41.806 21.3861 42.1304 20.4689C42.4423 19.5527 42.74 18.4388 42.7847 18.01C42.8294 17.5812 42.8121 16.8163 42.7504 16.31C42.6763 15.8046 42.5052 15.1785 42.3606 14.9194C42.2285 14.6593 41.9223 14.2558 41.2585 13.6084L42.1194 13.3194C42.3645 13.2439 42.6126 13.1644 42.8149 13.0997ZM38.7409 15.3786C38.5475 15.4919 38.1408 15.7907 37.8448 16.0532C37.5488 16.3157 36.99 16.9518 36.5995 17.4765C36.1965 18.002 35.7545 18.6864 35.6004 18.9955C35.4453 19.2904 35.2635 19.9135 35.1958 20.3724C35.127 20.8171 35.1043 21.7267 35.1521 22.3901C35.2019 23.0817 35.3733 24.0624 35.5579 24.7017C35.7404 25.3128 36.0239 26.1011 36.1892 26.4722C36.366 26.8284 36.5103 27.2578 36.5235 27.4413C36.5482 27.6097 36.4662 27.871 36.3501 28.007C36.2349 28.1572 36.005 28.2873 35.8295 28.2999C35.6541 28.3125 35.4109 28.2591 35.2911 28.1684C35.1712 28.0777 34.9172 27.6988 34.7509 27.3135C34.573 26.9433 34.2896 26.155 34.1101 25.5863C33.9431 25.0166 33.7111 24.0686 33.6193 23.4936L33.4428 22.4422C32.8549 23.5486 32.5759 24.2213 32.456 24.6555C32.3236 25.0907 32.1905 25.8664 32.1539 26.4081C32.114 27.0778 32.1577 27.6847 32.3013 28.4546C32.4191 29.042 32.6545 29.8621 32.8218 30.2615C32.9756 30.6476 33.3095 31.262 33.55 31.6278C33.7769 31.9803 34.0363 32.2595 34.099 32.255C34.1742 32.2496 34.414 31.906 34.6476 31.4778C34.8698 31.0646 35.2477 30.5408 35.4706 30.3119C35.6934 30.0831 36.0981 29.756 36.3616 29.5668C36.6261 29.3917 37.1758 29.1535 37.5822 29.0249C38.0262 28.8936 38.6006 28.8239 39.0192 28.8647C39.3981 28.88 39.8574 28.9604 40.0379 29.0184C40.3488 29.1378 40.3603 29.1228 40.2265 28.6643C40.1456 28.4147 40.0026 27.8292 39.8939 27.3688C39.7832 26.8803 39.7026 25.9355 39.6937 25.1133C39.688 24.3334 39.7455 23.2085 39.8417 22.6199C39.9379 22.0313 40.2745 20.7586 40.5959 19.7991C41.0737 18.3886 41.1885 17.8838 41.1722 17.133C41.1621 16.4669 41.097 16.0886 40.9233 15.7748C40.7922 15.5289 40.5724 15.2751 40.4285 15.2004C40.2845 15.1256 39.9296 15.0944 39.6414 15.1152C39.3417 15.1509 38.9343 15.2654 38.7409 15.3786Z" fill="#1A3C61"/>
<path fill-rule="evenodd" clip-rule="evenodd" d="M54.9817 0.0204372C58.7777 0.123964 60.5722 0.331017 62.4011 0.883158C63.747 1.26275 66.0591 2.19449 67.5775 2.91918C69.0958 3.67837 71.5115 5.19676 72.9263 6.30104C74.3412 7.43984 76.4462 9.54487 77.585 10.9597C78.7238 12.3401 80.3112 14.8247 81.1049 16.4466C81.8986 18.0686 82.8649 20.5532 83.279 21.9681C83.6586 23.3829 84.0727 26.1091 84.2107 28.0071C84.3142 30.0086 84.2452 32.5278 84.0037 34.0461C83.7621 35.461 83.3135 37.566 82.9339 38.7048C82.5888 39.8436 81.9676 41.5691 81.5535 42.5008C81.1394 43.4671 80.1042 45.3305 79.2414 46.6419C78.3787 47.9877 76.6188 50.0927 75.3764 51.3351C74.1341 52.5774 72.4087 54.0613 71.546 54.6479C70.6832 55.2346 66.0246 57.9953 61.1933 60.7905C59.5547 61.7385 57.789 62.762 56.0768 63.7546L56.07 63.7585L56.0624 63.7629L56.0612 63.7636L56.0545 63.7675C52.7268 65.6965 49.6037 67.5068 48.011 68.4169C45.1467 70.0733 43.3523 70.9016 42.9036 70.798C42.248 70.6255 42.2135 70.3149 42.179 65.3801C42.179 62.2398 42.0064 59.6172 41.7648 58.8925C41.4543 57.9608 40.7296 57.2706 38.4175 55.7177C36.7956 54.6479 34.7251 53.0605 33.7588 52.2323C32.8271 51.4041 31.2397 49.6441 30.2389 48.3328C29.2381 47.0215 27.8233 44.7094 27.0641 43.191C26.3394 41.6726 25.4767 39.5676 25.2006 38.5323C24.89 37.497 24.4759 35.392 24.2689 33.8736C24.0273 32.2862 23.9238 29.8706 24.0618 28.1796C24.1654 26.5577 24.5795 24.0041 24.9591 22.4857C25.3387 20.9673 26.2014 18.5517 26.8916 17.1368C27.5817 15.722 28.7895 13.6169 29.6177 12.4781C30.4115 11.3393 31.4467 10.0625 31.8953 9.6484C32.3439 9.23429 33.2757 8.33706 33.9314 7.64689C34.587 6.95671 36.3125 5.64538 37.7273 4.67913C39.1422 3.74739 41.5578 2.50507 43.0762 1.91842C44.5946 1.33177 46.7686 0.641596 47.9074 0.365525C49.3223 0.054946 51.5654 -0.0485805 54.9817 0.0204372ZM65.0928 61.6532C65.2309 61.6532 65.576 61.9293 65.8865 62.2744C66.3351 62.7575 66.4387 63.4477 66.3351 66.0013C66.2316 68.5895 66.0591 69.3142 65.5069 69.9008C64.8513 70.6255 64.5407 70.66 57.6734 70.6255C53.3253 70.6255 50.4956 70.4875 50.4956 70.2804C50.4956 70.1079 51.1513 69.5902 51.945 69.1071C52.7732 68.6585 55.9825 66.795 59.1228 64.966C62.2631 63.1716 64.9203 61.6532 65.0928 61.6532ZM65.4724 73.4552C64.9893 73.1446 62.1941 73.0411 54.0845 73.0411C44.146 73.0411 43.3178 73.0756 42.7311 73.6623C42.386 74.0074 42.1099 74.732 42.1444 75.2152C42.179 75.7328 42.524 76.4575 42.9036 76.8371C43.5593 77.4928 44.0769 77.5273 54.0155 77.5273C63.5399 77.5618 64.5407 77.4928 65.2999 76.9406C65.8865 76.492 66.1281 75.9744 66.1281 75.1116C66.1281 74.3179 65.8865 73.7658 65.4724 73.4552ZM54.0155 79.5978C58.7777 79.5978 60.1581 79.7013 60.7447 80.1154C61.2968 80.4605 61.5384 80.9781 61.5384 81.7718C61.5384 82.3585 61.2623 83.1522 60.9172 83.4973C60.3996 84.0494 59.6404 84.1184 54.2916 84.0839C49.4948 84.0839 48.08 83.9804 47.4588 83.5663C46.9527 83.2212 46.6996 82.7036 46.6996 82.0134C46.6996 81.4268 47.0102 80.6676 47.3898 80.288C48.011 79.6668 48.5286 79.5978 54.0155 79.5978ZM49.7437 4.63664C49.3296 4.74017 47.9147 5.11976 46.6379 5.49936C45.361 5.84445 43.2905 6.67266 42.0482 7.32833C40.8059 7.94949 38.8734 9.22631 37.7346 10.1581C36.5958 11.0553 34.9049 12.7462 34.0076 13.8505C33.0759 14.9893 31.7301 17.1633 31.0399 18.6817C30.3152 20.2001 29.418 22.5467 29.1074 23.8581C28.6933 25.4455 28.4862 27.5505 28.4862 29.8971C28.4862 32.0712 28.7278 34.4868 29.0729 35.9361C29.3835 37.2475 30.3152 39.7666 31.1779 41.4576C32.2132 43.5971 33.421 45.3571 35.0429 47.117C36.3197 48.5319 38.7008 50.5679 40.3228 51.6377C41.9447 52.7074 43.7736 54.1568 44.3603 54.847C44.9814 55.5717 45.7406 56.952 46.0167 57.9528C46.2928 58.919 46.5343 60.6445 46.5343 61.7487C46.5343 63.0946 46.6724 63.7157 46.9484 63.7157C47.19 63.7157 47.6386 63.5087 47.9147 63.2326C48.1908 62.9911 53.022 60.1613 58.6124 56.952C68.2749 51.4306 68.9651 50.9475 71.9328 48.0142C74.3139 45.6331 75.3837 44.2528 76.4535 42.1477C77.2472 40.6293 78.2134 38.2137 78.593 36.7989C79.0071 35.384 79.4212 32.7958 79.5593 31.1049C79.6973 28.8273 79.5938 27.2054 79.1797 25.0659C78.8346 23.4439 78.1789 21.2009 77.7303 20.0621C77.2472 18.9233 76.1774 16.9908 75.3837 15.7485C74.5555 14.5062 72.7956 12.5047 71.4842 11.2623C70.1729 10.02 68.2404 8.50163 67.2051 7.88047C66.1699 7.29382 63.9268 6.29306 62.2359 5.6719C59.4752 4.74017 58.6124 4.60213 54.8165 4.4986C52.4354 4.4641 50.1578 4.4986 49.7437 4.63664Z" fill="#1A3C61"/>
</svg>
